<?xml version="1.0" encoding="UTF-8"?>
<svg xmlns="http://www.w3.org/2000/svg" width="620" height="170" viewBox="0 0 620 170" role="img" aria-label="Deret arah panah, posisi titik, dan warna bergantian">
  <rect width="620" height="170" fill="#ffffff"/>
  <rect x="10" y="20" width="150" height="130" rx="12" fill="#f8fafc" stroke="#cbd5e1" stroke-width="3"/><g transform="translate(85 82) rotate(270)">
    <line x1="-27" y1="0" x2="12.15" y2="0" stroke="#2563eb" stroke-width="8" stroke-linecap="round"/>
    <polyline points="2.7,-10.26 14.850000000000001,0 2.7,10.26" fill="none" stroke="#2563eb" stroke-width="8" stroke-linecap="round" stroke-linejoin="round"/>
  </g><circle cx="45" cy="45" r="8" fill="#2563eb"/>
   <rect x="180" y="20" width="150" height="130" rx="12" fill="#f8fafc" stroke="#cbd5e1" stroke-width="3"/><g transform="translate(255 82) rotate(0)">
    <line x1="-27" y1="0" x2="12.15" y2="0" stroke="#0f172a" stroke-width="8" stroke-linecap="round"/>
    <polyline points="2.7,-10.26 14.850000000000001,0 2.7,10.26" fill="none" stroke="#0f172a" stroke-width="8" stroke-linecap="round" stroke-linejoin="round"/>
  </g><circle cx="295" cy="45" r="8" fill="#e8a51a"/>
   <rect x="350" y="20" width="150" height="130" rx="12" fill="#f8fafc" stroke="#cbd5e1" stroke-width="3"/><g transform="translate(425 82) rotate(90)">
    <line x1="-27" y1="0" x2="12.15" y2="0" stroke="#2563eb" stroke-width="8" stroke-linecap="round"/>
    <polyline points="2.7,-10.26 14.850000000000001,0 2.7,10.26" fill="none" stroke="#2563eb" stroke-width="8" stroke-linecap="round" stroke-linejoin="round"/>
  </g><circle cx="465" cy="125" r="8" fill="#2563eb"/>
   <text x="520" y="85" text-anchor="middle" dominant-baseline="middle" font-family="Arial, sans-serif" font-size="44" font-weight="700" fill="#0f172a">→</text><rect x="545" y="20" width="65" height="130" rx="12" fill="#f8fafc" stroke="#cbd5e1" stroke-width="3"/><text x="578" y="87" text-anchor="middle" dominant-baseline="middle" font-family="Arial, sans-serif" font-size="72" font-weight="700" fill="#2563eb">?</text>
</svg>
